# xmcd
#
# Track frame offsets:
#	150
#	43497
#	77834
#	115884
#	150789
#	180604
#	222132
#	258932
#	297622
#	319229
#
# Disc length: 4504 seconds
#
# Revision: 1
# Processed by: cddbd v1.5.2PL0 Copyright (c) Steve Scherf et al.
# Submitted via: audiograbber 1.83.01
#
DISCID=8d11960a
DTITLE=Mark Knopfler - Live in Portland 2001
DYEAR=2001
DGENRE=Rock
TTITLE0=Calling Elvis
TTITLE1=Walk of Life
TTITLE2=Rudiger
TTITLE3=What it Is
TTITLE4=Sailing to Philadelphia
TTITLE5=Romeo and Juliet
TTITLE6=Sultans of Swing
TTITLE7=Done with Bonaparte
TTITLE8=Who's your Baby Now
TTITLE9=Junkie Doll
EXTD=
EXTT0=
EXTT1=
EXTT2=
EXTT3=
EXTT4=
EXTT5=
EXTT6=
EXTT7=
EXTT8=
EXTT9=
PLAYORDER=
